<mxfile host="www.draw.io" modified="2019-12-03T10:15:54.148Z" agent="Mozilla/5.0 (Windows NT 6.1; Win64; x64; rv:70.0) Gecko/20100101 Firefox/70.0" etag="KceNZeUYBDGWs3D7p0qb" version="12.3.5" type="github" pages="1">
  <diagram name="Page-1" id="13e1069c-82ec-6db2-03f1-153e76fe0fe0">
    <mxGraphModel dx="1422" dy="757" grid="0" gridSize="10" guides="1" tooltips="1" connect="1" arrows="1" fold="1" page="1" pageScale="1" pageWidth="1100" pageHeight="850" background="#ffffff" math="0" shadow="0">
      <root>
        <mxCell id="0"/>
        <mxCell id="1" parent="0"/>
        <mxCell id="FAn675EmgKaNfwmKXNUg-20" value="" style="strokeColor=#666666;html=1;verticalLabelPosition=bottom;labelBackgroundColor=#ffffff;verticalAlign=top;outlineConnect=0;shadow=0;dashed=0;shape=mxgraph.rackGeneral.container;fillColor2=#f4f4f4;container=1;collapsible=0;childLayout=rack;allowGaps=1;marginLeft=9;marginRight=9;marginTop=21;marginBottom=22;textColor=#666666;numDisp=off;rotation=65;" vertex="1" parent="1">
          <mxGeometry x="670" y="335" width="60" height="220" as="geometry"/>
        </mxCell>
        <mxCell id="FAn675EmgKaNfwmKXNUg-19" value="" style="strokeColor=#666666;html=1;verticalLabelPosition=bottom;labelBackgroundColor=#ffffff;verticalAlign=top;outlineConnect=0;shadow=0;dashed=0;shape=mxgraph.rackGeneral.container;fillColor2=#f4f4f4;container=1;collapsible=0;childLayout=rack;allowGaps=1;marginLeft=9;marginRight=9;marginTop=21;marginBottom=22;textColor=#666666;numDisp=off;rotation=0;" vertex="1" parent="1">
          <mxGeometry x="540" y="260" width="60" height="220" as="geometry"/>
        </mxCell>
        <mxCell id="FAn675EmgKaNfwmKXNUg-8" value="" style="strokeColor=#666666;html=1;verticalLabelPosition=bottom;labelBackgroundColor=#ffffff;verticalAlign=top;outlineConnect=0;shadow=0;dashed=0;shape=mxgraph.rackGeneral.container;fillColor2=#f4f4f4;container=1;collapsible=0;childLayout=rack;allowGaps=1;marginLeft=9;marginRight=9;marginTop=21;marginBottom=22;textColor=#666666;numDisp=off;" vertex="1" parent="1">
          <mxGeometry x="540" y="480" width="60" height="220" as="geometry"/>
        </mxCell>
        <mxCell id="FAn675EmgKaNfwmKXNUg-10" value="" style="dashed=0;aspect=fixed;verticalLabelPosition=bottom;verticalAlign=top;align=center;shape=mxgraph.gmdl.attractions;strokeColor=#ffffff;fillColor=#737373;shadow=0;strokeWidth=1;" vertex="1" parent="FAn675EmgKaNfwmKXNUg-8">
          <mxGeometry x="9" y="61" width="42" height="40" as="geometry"/>
        </mxCell>
        <mxCell id="FAn675EmgKaNfwmKXNUg-11" value="" style="dashed=0;aspect=fixed;verticalLabelPosition=bottom;verticalAlign=top;align=center;shape=mxgraph.gmdl.attractions;strokeColor=#ffffff;fillColor=#737373;shadow=0;strokeWidth=1;" vertex="1" parent="FAn675EmgKaNfwmKXNUg-8">
          <mxGeometry x="9" y="121" width="42" height="40" as="geometry"/>
        </mxCell>
        <mxCell id="FAn675EmgKaNfwmKXNUg-6" value="" style="dashed=0;aspect=fixed;verticalLabelPosition=bottom;verticalAlign=top;align=center;shape=mxgraph.gmdl.travel;strokeColor=none;fillColor=#737373;shadow=0;direction=south;rotation=180;" vertex="1" parent="1">
          <mxGeometry x="250" y="390" width="70" height="70" as="geometry"/>
        </mxCell>
        <mxCell id="FAn675EmgKaNfwmKXNUg-12" value="" style="strokeColor=#666666;html=1;verticalLabelPosition=bottom;labelBackgroundColor=#ffffff;verticalAlign=top;outlineConnect=0;shadow=0;dashed=0;shape=mxgraph.rackGeneral.container;fillColor2=#f4f4f4;container=1;collapsible=0;childLayout=rack;allowGaps=1;marginLeft=9;marginRight=9;marginTop=21;marginBottom=22;textColor=#666666;numDisp=off;rotation=-75;" vertex="1" parent="1">
          <mxGeometry x="400" y="350" width="60" height="220" as="geometry"/>
        </mxCell>
        <mxCell id="FAn675EmgKaNfwmKXNUg-16" value="" style="image;html=1;labelBackgroundColor=#ffffff;image=img/lib/clip_art/computers/Virtual_Machine_128x128.png;fillColor=#ffffff;" vertex="1" parent="1">
          <mxGeometry x="470" y="445" width="200" height="110" as="geometry"/>
        </mxCell>
        <mxCell id="FAn675EmgKaNfwmKXNUg-17" value="" style="image;html=1;labelBackgroundColor=#ffffff;image=img/lib/clip_art/computers/Data_Filtering_128x128.png;fillColor=#ffffff;" vertex="1" parent="1">
          <mxGeometry x="540" y="460" width="80" height="80" as="geometry"/>
        </mxCell>
        <mxCell id="FAn675EmgKaNfwmKXNUg-21" value="成都" style="text;strokeColor=none;fillColor=none;html=1;fontSize=24;fontStyle=1;verticalAlign=middle;align=center;" vertex="1" parent="1">
          <mxGeometry x="270" y="340" width="100" height="40" as="geometry"/>
        </mxCell>
        <mxCell id="FAn675EmgKaNfwmKXNUg-22" value="北京" style="text;strokeColor=none;fillColor=none;html=1;fontSize=24;fontStyle=1;verticalAlign=middle;align=center;" vertex="1" parent="1">
          <mxGeometry x="580" y="205" width="100" height="40" as="geometry"/>
        </mxCell>
        <mxCell id="FAn675EmgKaNfwmKXNUg-23" value="" style="dashed=0;aspect=fixed;verticalLabelPosition=bottom;verticalAlign=top;align=center;shape=mxgraph.gmdl.travel;strokeColor=none;fillColor=#737373;shadow=0;direction=south;rotation=180;" vertex="1" parent="1">
          <mxGeometry x="530" y="190" width="70" height="70" as="geometry"/>
        </mxCell>
        <mxCell id="FAn675EmgKaNfwmKXNUg-24" value="" style="dashed=0;aspect=fixed;verticalLabelPosition=bottom;verticalAlign=top;align=center;shape=mxgraph.gmdl.travel;strokeColor=none;fillColor=#737373;shadow=0;direction=south;rotation=0;" vertex="1" parent="1">
          <mxGeometry x="810" y="360" width="70" height="70" as="geometry"/>
        </mxCell>
        <mxCell id="FAn675EmgKaNfwmKXNUg-25" value="上海" style="text;strokeColor=none;fillColor=none;html=1;fontSize=24;fontStyle=1;verticalAlign=middle;align=center;" vertex="1" parent="1">
          <mxGeometry x="830" y="335" width="100" height="40" as="geometry"/>
        </mxCell>
        <mxCell id="FAn675EmgKaNfwmKXNUg-26" value="广州集散中心" style="text;strokeColor=none;fillColor=none;html=1;fontSize=24;fontStyle=1;verticalAlign=middle;align=center;" vertex="1" parent="1">
          <mxGeometry x="520" y="710" width="100" height="40" as="geometry"/>
        </mxCell>
      </root>
    </mxGraphModel>
  </diagram>
</mxfile>
